<?xml version="1.0" standalone="no"?>
<!DOCTYPE svg PUBLIC "-//W3C//DTD SVG 20010904//EN"
 "http://www.w3.org/TR/2001/REC-SVG-20010904/DTD/svg10.dtd">
<svg version="1.0" xmlns="http://www.w3.org/2000/svg"
 width="900.000000pt" height="900.000000pt" viewBox="0 0 900.000000 900.000000"
 preserveAspectRatio="xMidYMid meet">
<metadata>
Created by potrace 1.14, written by Peter Selinger 2001-2017
</metadata>
<g transform="translate(0.000000,900.000000) scale(0.100000,-0.100000)"
fill="#000000" stroke="none">
<path d="M4139 8466 c-2 -3 -29 -8 -59 -11 -100 -12 -115 -14 -150 -23 -19 -4
-42 -8 -50 -7 -8 0 -18 -3 -21 -8 -4 -5 -21 -10 -38 -11 -17 0 -31 -3 -31 -6
0 -3 -8 -6 -18 -7 -27 -2 -47 -7 -52 -14 -3 -4 -21 -9 -40 -12 -19 -3 -43 -8
-53 -12 -10 -4 -26 -9 -35 -10 -10 -1 -30 -7 -46 -13 -16 -7 -38 -14 -50 -17
-11 -2 -22 -4 -23 -6 -2 -1 -7 -3 -13 -4 -5 -1 -13 -4 -17 -5 -5 -1 -11 -2
-15 -1 -5 0 -8 -3 -8 -9 0 -5 -7 -7 -15 -4 -8 4 -15 1 -15 -6 0 -7 -6 -10 -14
-7 -7 3 -23 -1 -35 -9 -11 -8 -21 -13 -21 -10 0 3 -12 -1 -27 -9 -15 -8 -30
-12 -35 -9 -4 3 -8 0 -8 -5 0 -6 -4 -11 -9 -11 -5 0 -22 -5 -38 -12 -15 -6
-31 -11 -35 -10 -5 1 -8 -3 -8 -10 0 -6 -3 -8 -6 -5 -4 3 -16 1 -28 -5 -11 -7
-24 -11 -28 -10 -5 1 -8 -3 -8 -8 0 -6 -9 -10 -20 -10 -11 0 -20 -4 -20 -10 0
-5 -8 -10 -17 -10 -10 0 -27 -7 -37 -15 -10 -8 -23 -12 -27 -9 -5 3 -9 0 -9
-5 0 -6 -7 -11 -15 -11 -8 0 -15 -4 -15 -9 0 -5 -12 -12 -26 -15 -15 -4 -33
-14 -41 -22 -9 -8 -22 -13 -30 -10 -8 3 -12 2 -9 -3 3 -4 -12 -17 -34 -27 -22
-10 -40 -23 -40 -27 0 -5 -4 -5 -10 -2 -5 3 -10 1 -10 -4 0 -6 -6 -11 -14 -11
-8 0 -16 -7 -20 -15 -3 -8 -12 -15 -21 -15 -16 0 -27 -8 -70 -48 -14 -13 -25
-18 -25 -11 0 6 -9 1 -20 -12 -10 -13 -19 -20 -20 -15 0 5 -11 -3 -25 -18 -14
-15 -25 -23 -25 -19 0 4 -7 -1 -15 -11 -8 -11 -15 -16 -15 -10 0 5 -4 4 -8 -2
-4 -5 -25 -23 -47 -39 -22 -16 -50 -40 -62 -53 -13 -13 -23 -21 -23 -18 0 6
-28 -19 -116 -101 -31 -29 -60 -53 -65 -53 -6 0 -7 -4 -4 -10 3 -5 2 -10 -4
-10 -14 0 -60 -47 -53 -54 3 -3 -3 -6 -13 -6 -10 0 -15 -3 -12 -6 3 -4 -5 -15
-18 -26 -14 -11 -23 -24 -19 -29 3 -5 2 -8 -3 -7 -4 1 -21 -11 -38 -28 -31
-32 -35 -38 -35 -54 0 -6 -3 -9 -7 -8 -5 2 -9 -1 -10 -6 0 -5 -8 -13 -17 -18
-9 -5 -14 -14 -10 -19 3 -5 0 -8 -6 -7 -7 2 -17 -6 -23 -16 -15 -25 -22 -34
-52 -71 -14 -16 -28 -38 -31 -47 -3 -10 -10 -18 -15 -18 -5 0 -9 -6 -9 -14 0
-8 -7 -16 -15 -20 -8 -3 -15 -12 -15 -19 0 -8 -9 -24 -20 -37 -11 -12 -17 -27
-13 -33 3 -5 1 -7 -5 -3 -6 3 -13 -3 -17 -14 -3 -11 -10 -20 -15 -20 -5 0 -7
-8 -3 -17 3 -10 3 -15 -2 -11 -4 4 -19 -15 -32 -42 -13 -28 -28 -50 -34 -50
-6 0 -7 -4 -4 -10 3 -5 0 -10 -7 -10 -9 0 -9 -3 2 -10 8 -5 10 -10 4 -10 -11
0 -74 -114 -74 -136 0 -7 -5 -14 -11 -16 -5 -2 -11 -10 -13 -18 -8 -42 -19
-69 -26 -65 -4 2 -7 -6 -6 -18 1 -12 -3 -25 -8 -29 -5 -3 -11 -17 -13 -29 -2
-13 -9 -27 -16 -31 -9 -6 -8 -8 3 -8 9 0 11 -3 4 -8 -14 -10 -44 -88 -37 -96
4 -3 2 -6 -4 -6 -5 0 -10 -7 -11 -15 -1 -8 -3 -22 -4 -30 -1 -8 -4 -15 -8 -15
-3 0 -6 -8 -7 -18 -2 -27 -7 -47 -15 -52 -3 -3 -8 -21 -10 -40 -1 -19 -6 -37
-9 -40 -4 -3 -9 -21 -12 -40 -10 -66 -20 -105 -30 -117 -6 -9 -6 -13 3 -13 9
0 9 -4 3 -12 -6 -7 -9 -23 -8 -35 1 -13 -2 -23 -6 -23 -4 0 -6 -10 -4 -22 3
-12 0 -27 -6 -34 -7 -8 -7 -14 1 -19 6 -3 7 -12 3 -18 -8 -13 -11 -42 -16
-147 -2 -37 -7 -72 -12 -80 -5 -9 -4 -15 3 -18 8 -2 9 -9 2 -21 -5 -10 -6 -21
-3 -25 10 -9 10 -56 0 -56 -4 0 -3 -9 3 -20 8 -14 8 -20 0 -20 -7 0 -8 -5 -3
-12 12 -20 12 -71 -1 -87 -8 -11 -8 -13 1 -7 9 5 12 -1 9 -23 -2 -17 -1 -31 3
-31 3 0 6 -24 6 -52 0 -29 2 -57 4 -63 3 -5 7 -30 9 -55 2 -24 8 -52 13 -62 6
-10 5 -19 -1 -23 -5 -3 -1 -20 11 -41 11 -20 14 -32 8 -28 -9 5 -10 2 -5 -12
5 -10 10 -32 12 -47 2 -16 7 -34 11 -40 4 -6 8 -25 10 -41 2 -17 7 -34 12 -39
5 -5 7 -15 5 -22 -3 -7 -1 -16 5 -19 6 -4 8 -13 4 -21 -3 -8 -1 -15 4 -15 5 0
10 -6 11 -12 0 -7 3 -20 5 -28 3 -8 8 -30 12 -47 4 -18 12 -33 18 -33 6 0 8
-3 4 -6 -6 -6 9 -51 38 -119 35 -80 43 -104 37 -109 -3 -3 -1 -6 5 -6 5 0 18
-20 29 -45 10 -25 22 -45 27 -45 4 0 5 -4 2 -10 -3 -5 6 -25 20 -45 15 -19 24
-38 21 -44 -3 -5 1 -11 9 -15 8 -3 15 -12 15 -19 0 -8 7 -20 15 -27 8 -7 12
-16 9 -21 -3 -5 0 -9 5 -9 6 0 11 -9 11 -21 0 -11 5 -17 10 -14 6 3 10 1 10
-5 0 -6 5 -16 10 -23 6 -7 25 -34 42 -62 18 -27 37 -53 43 -57 5 -4 6 -8 1 -8
-5 0 1 -9 14 -20 13 -11 21 -23 18 -25 -3 -3 9 -21 26 -40 55 -59 84 -95 78
-95 -3 0 3 -8 14 -19 10 -10 39 -41 63 -69 24 -28 49 -49 54 -45 6 3 7 1 3 -5
-7 -12 99 -124 109 -114 3 3 5 -1 5 -9 0 -15 39 -45 53 -41 5 1 6 -2 3 -7 -6
-9 83 -90 113 -103 9 -4 12 -7 6 -7 -5 -1 2 -9 15 -18 14 -10 28 -17 32 -16 4
2 4 -5 1 -14 -4 -10 -2 -14 4 -10 6 4 18 0 27 -8 21 -21 105 -85 112 -85 3 0
12 -7 21 -15 8 -8 20 -12 26 -8 7 3 9 3 5 -2 -8 -8 52 -55 70 -55 6 0 13 -7
16 -16 3 -8 10 -12 16 -9 5 3 10 1 10 -4 0 -6 7 -11 15 -11 8 0 15 -5 15 -11
0 -5 5 -7 10 -4 6 3 10 2 10 -4 0 -6 11 -13 25 -17 14 -3 25 -10 25 -14 0 -5
16 -14 35 -21 19 -7 35 -17 35 -21 0 -4 7 -8 15 -8 8 0 24 -9 35 -20 12 -12
20 -15 20 -7 0 8 3 8 8 1 4 -5 24 -18 44 -27 20 -10 40 -22 43 -27 3 -5 13 -6
22 -3 12 5 14 3 8 -7 -5 -8 -3 -11 6 -8 8 3 20 -1 27 -9 8 -7 18 -11 23 -8 5
4 9 1 9 -5 0 -7 7 -10 15 -6 8 3 15 1 15 -4 0 -6 5 -10 10 -10 6 0 30 -9 52
-20 23 -11 50 -20 60 -20 10 0 18 -4 18 -10 0 -5 10 -10 23 -10 13 0 27 -3 31
-7 4 -5 12 -9 17 -9 5 -1 10 -2 12 -4 1 -1 11 -3 22 -5 11 -2 21 -9 23 -15 2
-5 8 -8 13 -5 5 3 17 1 27 -4 10 -5 32 -12 48 -14 16 -3 28 -9 27 -15 -1 -5 6
-8 17 -5 11 3 28 2 37 -2 10 -5 21 -7 26 -7 4 1 7 -2 7 -6 0 -5 10 -8 23 -7
12 1 27 -2 33 -6 6 -5 29 -10 51 -12 22 -2 45 -7 51 -11 5 -3 22 -7 36 -8 14
-1 26 -6 26 -10 0 -4 9 -5 20 -3 11 2 20 -2 20 -8 0 -7 4 -6 10 3 5 8 10 10
10 5 0 -6 8 -11 18 -12 9 -1 33 -4 52 -8 19 -3 44 -8 55 -9 11 -2 20 -5 20 -6
0 -1 17 -3 37 -4 21 -1 41 -5 44 -9 4 -4 13 -2 21 4 8 7 13 7 13 2 0 -6 10 -9
23 -9 12 1 30 -2 40 -6 11 -6 17 -5 17 2 0 7 6 8 19 0 28 -15 64 -13 55 2 -6
10 -4 10 7 2 8 -6 34 -12 59 -13 25 -2 48 -5 52 -8 5 -2 8 0 8 6 0 7 9 7 23 3
12 -5 35 -7 52 -6 16 2 36 -2 44 -9 8 -7 12 -7 9 -1 -5 7 37 10 129 10 74 -1
137 3 140 8 3 4 9 2 14 -5 6 -10 9 -10 9 -2 0 8 13 11 40 8 22 -2 40 -1 40 3
0 4 24 7 53 7 34 0 57 5 65 15 8 8 11 10 7 3 -6 -12 14 -12 95 3 19 3 47 7 63
8 15 0 27 3 27 6 0 3 8 6 18 7 18 2 29 4 137 28 39 8 79 17 90 19 11 2 34 9
50 16 17 6 30 11 30 10 0 -3 43 13 68 25 15 8 25 10 22 5 -10 -16 12 -11 29 6
9 8 16 11 16 5 0 -5 14 -3 30 6 17 8 39 16 48 18 9 2 17 4 17 5 0 1 11 4 25 6
13 2 28 10 32 17 4 6 8 9 8 4 0 -4 15 -1 34 7 19 8 37 12 40 8 3 -3 6 0 6 6 0
7 9 12 20 12 11 0 20 5 20 11 0 5 4 8 8 5 5 -3 20 1 35 9 14 7 28 11 31 7 3
-3 6 0 6 7 0 7 4 10 9 6 5 -3 12 -1 16 5 3 5 13 10 22 10 8 0 26 9 40 20 14
11 34 20 44 20 9 0 19 4 21 9 2 5 12 11 23 13 23 4 45 20 39 30 -2 3 4 5 13 4
10 -2 26 5 37 15 10 10 23 16 27 13 4 -2 12 4 18 13 5 10 13 17 18 17 14 -2
53 19 53 28 0 5 5 6 10 3 6 -3 10 -1 10 6 0 7 3 10 6 6 4 -3 12 -1 20 6 33 30
42 35 48 30 3 -4 6 -1 6 5 0 7 7 12 15 12 8 0 15 5 15 10 0 6 5 10 11 10 6 0
17 6 24 13 33 29 43 35 48 31 3 -3 8 4 12 15 3 12 10 19 14 16 5 -2 19 5 32
16 13 11 39 32 57 47 19 15 44 37 57 50 12 12 25 22 28 22 8 0 72 57 158 141
37 37 70 64 73 61 4 -3 6 1 6 9 0 8 11 23 25 33 14 10 25 25 25 33 0 8 4 12 8
9 5 -3 22 11 38 31 16 20 39 47 52 59 12 13 22 25 22 28 0 3 16 22 35 43 19
21 35 43 35 49 0 7 7 15 16 18 9 4 14 9 11 12 -3 3 2 14 11 23 29 31 48 56 55
74 3 9 11 17 17 17 5 0 10 9 10 21 0 11 4 17 10 14 5 -3 12 6 16 20 3 13 10
22 15 19 5 -3 9 2 9 10 0 9 9 25 20 36 11 11 20 21 19 23 -3 7 26 57 33 57 4
0 8 3 7 8 -2 16 14 52 24 52 6 0 7 3 4 7 -4 3 1 12 11 20 11 10 12 12 2 8 -8
-4 -7 0 4 9 11 9 16 22 12 31 -3 9 -2 14 2 11 13 -8 31 29 21 45 -6 9 -9 10
-9 2 0 -7 -31 -44 -70 -83 -38 -39 -70 -69 -70 -66 0 3 -22 -16 -49 -42 -60
-57 -79 -73 -85 -70 -2 2 -18 -11 -34 -29 -17 -17 -33 -29 -36 -26 -3 3 -8 -2
-12 -11 -3 -9 -13 -16 -21 -16 -8 0 -11 -5 -7 -12 5 -7 2 -9 -8 -5 -10 3 -20
-3 -28 -18 -7 -14 -16 -22 -20 -20 -4 3 -22 -9 -39 -25 -17 -17 -31 -27 -31
-24 0 4 -8 0 -17 -8 -10 -9 -28 -19 -41 -23 -12 -3 -20 -10 -17 -15 3 -5 -6
-12 -20 -16 -14 -3 -25 -10 -25 -16 0 -5 -4 -7 -9 -3 -6 3 -14 -3 -20 -12 -6
-10 -11 -14 -11 -10 0 5 -13 -1 -30 -13 -16 -12 -30 -18 -30 -13 0 4 -7 -1
-15 -11 -8 -11 -15 -17 -15 -13 0 3 -25 -7 -56 -24 -31 -16 -62 -29 -69 -29
-8 0 -20 -7 -29 -15 -8 -9 -18 -15 -21 -15 -16 1 -55 -13 -55 -21 0 -5 -4 -8
-8 -6 -12 3 -82 -26 -82 -35 0 -4 -7 -5 -15 -2 -8 4 -15 1 -15 -6 0 -6 -4 -9
-9 -5 -5 3 -12 1 -16 -5 -4 -6 -11 -8 -16 -4 -5 3 -15 2 -22 -4 -19 -15 -191
-66 -262 -77 -11 -2 -20 -4 -20 -5 0 -1 -13 -4 -30 -6 -16 -3 -31 -9 -33 -14
-2 -5 -9 -7 -16 -4 -7 3 -24 0 -38 -5 -18 -7 -29 -6 -37 2 -8 8 -11 8 -11 -1
0 -7 -10 -12 -23 -12 -13 0 -27 -3 -30 -7 -4 -3 -28 -8 -53 -10 -58 -4 -91
-10 -104 -18 -5 -3 -10 -1 -10 6 0 8 -4 8 -12 2 -7 -6 -27 -10 -44 -10 -16 0
-34 -1 -40 -4 -5 -2 -46 -4 -91 -4 -46 0 -83 -3 -83 -7 0 -4 -13 -3 -30 2 -16
5 -30 5 -30 1 0 -8 -42 -7 -57 2 -7 4 -14 3 -18 -3 -4 -6 -11 -7 -17 -4 -8 5
-121 12 -280 17 -16 1 -28 5 -28 9 0 5 -9 4 -19 -2 -13 -7 -22 -7 -26 0 -3 5
-24 10 -46 10 -24 0 -38 4 -34 10 4 7 -2 7 -19 0 -13 -5 -26 -5 -28 0 -2 4
-19 9 -38 11 -19 2 -39 5 -45 8 -11 6 -42 11 -67 12 -10 0 -18 3 -18 7 0 4 -8
8 -17 8 -29 1 -76 11 -106 23 -15 6 -31 10 -35 9 -12 -2 -66 14 -79 25 -7 5
-13 6 -13 2 0 -4 -7 -1 -17 6 -9 8 -18 13 -20 11 -5 -5 -95 29 -110 41 -7 5
-13 6 -13 2 0 -4 -11 0 -25 9 -14 9 -25 14 -25 10 0 -3 -11 1 -25 10 -13 9
-31 16 -40 16 -8 0 -15 4 -15 10 0 5 -3 9 -7 8 -5 -1 -35 11 -68 27 -33 16
-63 30 -67 31 -5 1 -11 3 -15 4 -5 1 -12 2 -16 1 -5 -1 -6 3 -3 8 3 5 -12 16
-33 25 -22 8 -42 20 -46 26 -3 6 -11 8 -16 5 -5 -4 -9 -1 -9 4 0 6 -6 11 -14
11 -7 0 -19 7 -26 15 -7 8 -16 12 -21 9 -5 -3 -9 0 -9 5 0 6 -7 11 -15 11 -8
0 -20 9 -27 19 -6 10 -18 17 -25 14 -7 -3 -13 2 -13 11 0 9 -4 16 -10 16 -22
0 -20 -1 -80 50 -19 16 -41 30 -48 30 -7 0 -15 6 -18 14 -3 8 -15 16 -26 19
-11 3 -17 10 -13 16 3 6 0 11 -7 11 -12 0 -52 33 -145 119 -23 22 -44 36 -47
33 -3 -3 -6 1 -6 10 0 8 -11 21 -25 28 -13 7 -23 16 -22 19 1 4 -25 34 -58 67
-33 33 -76 80 -95 104 -19 23 -44 52 -55 64 -11 11 -20 24 -20 28 0 4 -9 16
-20 26 -11 11 -27 29 -35 42 -8 12 -23 31 -32 42 -10 11 -15 25 -12 29 3 5 0
9 -6 9 -6 0 -14 8 -17 18 -4 9 -15 26 -25 36 -10 11 -18 26 -18 33 0 7 -4 13
-10 13 -5 0 -10 10 -10 22 0 12 -3 18 -6 15 -8 -7 -44 55 -38 64 2 4 -3 10
-12 13 -8 3 -12 10 -9 16 3 5 1 10 -4 10 -6 0 -11 9 -11 20 0 11 -3 20 -8 20
-8 0 -43 74 -48 100 -2 8 -8 16 -13 18 -6 2 -11 10 -11 18 0 8 -9 34 -20 56
-11 23 -20 48 -20 55 0 7 -4 13 -10 13 -5 0 -10 14 -10 30 0 17 -5 30 -12 30
-6 0 -9 3 -6 6 5 5 -10 63 -29 114 -4 8 -7 22 -7 30 -1 8 -8 26 -15 39 -7 13
-8 20 -2 17 6 -4 5 7 -3 26 -7 18 -12 41 -11 51 2 9 0 17 -5 17 -4 0 -6 10 -6
23 1 12 -1 27 -5 32 -4 6 -6 20 -5 30 2 11 -1 26 -6 32 -6 7 -8 19 -5 27 3 8
3 17 -1 20 -3 4 -6 25 -6 49 -1 23 -4 47 -9 54 -4 6 -3 14 3 18 6 4 7 12 3 18
-10 16 -12 50 -12 212 0 77 -1 150 -1 163 0 12 6 22 13 22 7 0 8 3 2 8 -11 8
-16 62 -5 62 8 0 6 37 -3 46 -4 4 -2 13 4 20 6 8 9 21 5 29 -3 8 -2 15 3 15 4
0 7 20 7 44 -1 24 3 42 8 39 5 -3 7 6 4 21 -3 14 -2 26 2 26 5 0 7 14 6 31 -1
16 1 32 5 34 6 4 18 47 24 91 2 11 9 40 15 65 7 24 13 49 14 56 1 7 5 16 9 19
4 4 7 13 7 20 0 7 5 25 12 41 6 15 12 33 13 38 1 12 10 34 35 90 9 22 24 57
31 79 8 21 20 41 26 43 7 3 11 9 8 14 -6 9 10 41 34 72 8 9 10 17 5 17 -5 0
-4 4 2 8 5 4 18 24 27 45 10 20 22 37 27 37 6 0 9 3 9 8 -3 17 2 30 21 50 11
12 20 24 20 27 -1 8 33 59 45 67 6 5 6 8 0 8 -5 0 -2 5 8 11 9 6 15 14 12 19
-3 4 2 10 10 14 8 3 15 12 15 20 0 8 3 16 8 18 4 2 18 16 32 32 14 16 18 25
10 21 -8 -5 1 7 20 26 43 43 80 90 80 102 0 4 5 5 10 2 6 -3 10 -2 10 4 0 15
140 156 151 153 6 -1 7 2 4 8 -4 7 2 14 15 17 12 3 19 11 16 19 -3 7 4 16 15
19 10 4 19 11 19 17 0 6 3 9 6 5 3 -3 20 10 37 29 18 19 38 34 44 34 7 0 13 8
13 17 0 9 3 14 6 10 6 -5 32 13 63 45 9 9 22 18 29 20 8 2 30 18 50 35 19 18
38 31 40 28 2 -2 16 7 30 21 15 13 33 24 40 24 7 0 15 7 19 16 3 8 12 13 20
10 8 -3 12 -2 9 3 -3 5 13 18 37 30 23 12 56 30 72 41 17 10 50 29 75 41 25
12 53 29 63 37 9 8 17 12 17 8 0 -4 14 3 32 15 18 14 28 17 24 8 -4 -7 1 -4
12 8 11 12 22 19 26 16 3 -4 6 -1 6 7 0 10 3 10 15 0 13 -11 14 -10 9 3 -7 18
-54 20 -54 2 0 -5 -4 -4 -8 3 -5 7 -10 10 -13 8z"/>
<path d="M5439 8065 c-3 -2 -52 -7 -109 -10 -57 -3 -109 -10 -116 -16 -8 -7
-14 -7 -19 1 -3 6 -11 7 -18 3 -6 -4 -23 -7 -37 -8 -14 -1 -32 -5 -40 -10 -7
-5 -34 -9 -59 -10 -25 -2 -59 -8 -75 -14 -16 -6 -36 -13 -45 -14 -9 -1 -22 -6
-28 -10 -7 -5 -13 -6 -13 -2 0 3 -16 -1 -35 -9 -19 -8 -35 -12 -35 -9 0 3 -10
-2 -22 -13 -12 -10 -18 -14 -14 -7 4 8 -2 7 -21 -2 -15 -8 -34 -15 -41 -15 -7
0 -10 -5 -6 -12 4 -7 3 -8 -5 -4 -6 4 -18 2 -26 -4 -8 -6 -18 -9 -24 -6 -5 3
-11 2 -13 -3 -1 -5 -10 -11 -18 -13 -8 -2 -18 -7 -21 -11 -3 -5 -14 -9 -23
-11 -10 -1 -22 -9 -27 -17 -5 -8 -9 -11 -9 -6 0 4 -19 -5 -42 -20 -24 -14 -49
-26 -56 -26 -7 0 -11 -5 -9 -12 3 -6 -5 -12 -16 -12 -11 -1 -25 -9 -29 -18 -5
-8 -16 -15 -23 -15 -8 0 -15 -4 -15 -8 0 -4 -12 -15 -27 -25 -16 -9 -42 -29
-59 -44 -17 -15 -43 -37 -58 -48 -14 -11 -26 -25 -26 -32 0 -7 -3 -12 -8 -10
-13 4 -157 -156 -150 -167 2 -3 -7 -13 -20 -21 -12 -9 -20 -20 -17 -24 2 -5
-7 -19 -20 -31 -14 -13 -25 -32 -25 -42 0 -10 -4 -18 -9 -18 -10 0 -27 -39
-23 -52 1 -5 -5 -8 -14 -8 -9 0 -12 -5 -8 -12 4 -6 -1 -17 -11 -25 -11 -7 -13
-13 -6 -13 9 0 8 -5 -3 -16 -9 -8 -16 -19 -16 -23 0 -5 -8 -26 -17 -47 -32
-75 -62 -167 -57 -176 3 -4 0 -8 -7 -8 -7 0 -9 -3 -6 -7 4 -3 2 -12 -4 -19 -6
-8 -9 -21 -5 -29 3 -8 1 -15 -5 -15 -6 0 -9 -7 -6 -15 4 -8 2 -17 -3 -20 -5
-3 -8 -13 -8 -23 0 -9 -2 -29 -6 -44 -17 -74 -17 -80 -4 -72 10 6 9 3 -1 -9
-7 -9 -14 -45 -16 -81 -1 -35 -5 -68 -9 -74 -3 -6 -2 -13 4 -17 7 -4 7 -12 0
-26 -6 -10 -7 -19 -3 -19 7 0 9 -67 3 -95 -1 -5 -1 -12 0 -15 1 -3 4 -34 6
-70 6 -103 9 -124 17 -137 4 -6 3 -15 -3 -18 -7 -5 -8 -11 -1 -19 5 -6 11 -23
13 -36 2 -14 7 -30 10 -36 4 -6 8 -27 10 -47 1 -21 5 -37 8 -37 5 0 9 -18 12
-57 1 -7 5 -13 9 -13 4 0 6 -8 5 -17 -2 -10 3 -24 11 -31 7 -7 13 -27 13 -43
0 -16 5 -29 10 -29 6 0 10 -7 10 -15 0 -8 5 -24 10 -35 6 -11 15 -29 20 -40 6
-11 10 -26 10 -34 0 -8 5 -16 11 -18 5 -2 12 -10 14 -18 8 -36 18 -60 24 -60
4 0 13 -16 21 -35 8 -19 17 -35 22 -35 4 0 8 -9 8 -21 0 -11 4 -18 9 -15 5 3
12 -2 15 -12 12 -32 66 -114 83 -125 7 -4 13 -15 13 -22 0 -8 5 -15 10 -15 6
0 10 -6 10 -14 0 -8 9 -18 20 -21 11 -4 18 -10 15 -15 -3 -4 2 -10 10 -14 8
-3 15 -10 15 -16 0 -15 37 -49 46 -42 4 4 4 2 1 -4 -4 -7 11 -28 33 -48 22
-20 40 -40 40 -46 0 -5 4 -10 8 -10 5 0 35 -25 67 -55 32 -30 61 -55 64 -55 4
0 21 -14 39 -30 18 -17 35 -30 38 -30 2 0 12 -7 22 -16 44 -39 78 -64 90 -64
6 0 12 -4 12 -10 0 -5 7 -10 15 -10 8 0 15 -3 15 -8 0 -4 14 -13 30 -20 17 -8
28 -18 24 -23 -3 -5 -2 -9 3 -8 21 4 41 -2 59 -18 11 -10 26 -19 34 -21 8 -2
17 -8 18 -13 2 -5 8 -7 13 -3 5 3 9 0 9 -6 0 -7 7 -10 15 -6 8 3 15 1 15 -4 0
-6 7 -10 15 -10 8 0 15 -4 15 -10 0 -5 3 -9 8 -8 4 1 21 -5 37 -12 17 -7 33
-13 38 -12 4 1 7 -3 7 -9 0 -6 7 -9 15 -5 8 3 15 1 15 -5 0 -6 5 -7 10 -4 6 3
10 1 10 -4 0 -6 8 -11 18 -11 10 0 23 -5 30 -12 7 -7 12 -8 12 -4 0 5 6 3 14
-3 13 -11 42 -20 76 -24 8 -1 17 -5 20 -9 3 -3 14 -8 25 -10 11 -1 22 -6 25
-10 3 -4 20 -8 38 -10 18 -1 32 -6 32 -11 0 -5 7 -7 15 -4 8 4 17 1 21 -4 3
-6 15 -9 25 -6 10 3 19 1 21 -5 2 -5 18 -10 36 -10 17 -1 32 -4 32 -7 0 -4 16
-8 36 -9 20 -2 45 -7 55 -13 14 -7 19 -6 19 3 0 10 2 10 9 -1 5 -8 19 -12 35
-9 14 3 30 0 35 -6 5 -6 27 -11 47 -10 21 1 48 -2 60 -6 15 -6 24 -5 28 3 3 9
5 9 5 0 1 -6 10 -9 22 -6 12 4 25 0 30 -8 5 -9 9 -10 9 -2 0 8 9 9 28 4 15 -4
82 -7 149 -7 76 1 123 -3 123 -9 0 -5 4 -5 8 2 5 7 20 10 37 7 17 -3 31 0 36
8 6 9 9 9 9 1 0 -8 9 -9 30 -3 18 5 32 5 36 -1 3 -5 10 -7 15 -3 11 7 41 12
114 19 45 4 81 8 155 18 14 2 30 6 35 9 6 3 22 5 38 4 15 -1 27 1 27 5 0 4 8
6 18 5 9 -2 20 1 23 6 3 5 15 10 26 11 14 1 19 6 15 16 -4 10 -7 11 -10 3 -2
-7 -8 -9 -13 -6 -6 3 -17 0 -26 -8 -12 -9 -15 -9 -9 0 5 8 -2 12 -24 12 -22 0
-29 -4 -24 -12 6 -10 4 -10 -7 -2 -12 10 -74 17 -141 16 -10 -1 -20 3 -23 9
-4 5 -13 5 -24 -1 -10 -5 -21 -7 -24 -4 -3 3 -23 8 -44 10 -21 3 -49 7 -63 11
-28 7 -69 14 -87 15 -7 1 -13 6 -13 12 0 6 -5 4 -10 -4 -5 -8 -10 -10 -10 -4
0 6 -18 14 -40 18 -22 3 -40 11 -40 17 0 5 -5 7 -10 4 -6 -4 -17 -1 -25 5 -8
6 -19 9 -25 5 -5 -3 -12 0 -15 7 -3 8 -14 14 -24 15 -11 1 -38 11 -62 22 -23
12 -48 21 -55 21 -7 0 -14 3 -16 8 -1 4 -34 23 -73 42 -38 19 -73 39 -77 45
-5 7 -8 7 -8 0 0 -5 -5 -2 -11 8 -6 9 -14 15 -20 12 -5 -4 -9 -1 -9 5 0 6 -4
9 -9 6 -5 -3 -12 1 -15 10 -4 9 -9 14 -13 11 -3 -4 -18 6 -32 21 -27 28 -34
32 -51 32 -5 0 -10 7 -10 16 0 8 -4 12 -10 9 -5 -3 -10 -1 -10 4 0 6 -6 11
-13 11 -7 0 -19 9 -27 20 -8 11 -19 20 -25 20 -6 0 -17 9 -25 19 -7 11 -17 18
-22 15 -4 -3 -8 2 -8 10 0 9 -4 16 -8 16 -13 0 -92 80 -92 92 0 6 -3 9 -6 5
-8 -7 -54 46 -54 63 0 6 -4 9 -8 6 -5 -3 -15 6 -22 19 -7 13 -17 22 -22 19 -5
-3 -7 -1 -6 4 3 11 -14 38 -50 80 -12 15 -29 42 -37 60 -9 17 -19 32 -24 32
-4 0 -13 16 -21 35 -8 19 -18 35 -22 35 -5 0 -7 4 -3 9 3 5 -2 16 -10 24 -8 9
-15 22 -15 29 0 8 -6 20 -12 26 -7 7 -14 16 -14 20 -5 26 -18 52 -25 52 -5 0
-6 7 -3 15 4 8 1 15 -6 15 -6 0 -9 4 -6 9 4 5 2 11 -3 13 -5 1 -11 14 -13 28
-1 14 -6 27 -10 30 -4 3 -9 15 -11 25 -2 11 -9 33 -16 49 -6 16 -9 31 -7 34 3
2 0 14 -6 26 -11 20 -13 31 -22 118 -2 20 -6 41 -10 46 -3 6 0 13 6 15 9 4 9
6 1 6 -6 1 -9 10 -6 21 3 12 0 20 -7 20 -8 0 -9 4 -3 13 8 10 10 32 3 40 -6 6
-4 169 2 173 4 3 3 16 -2 29 -6 15 -6 27 0 30 5 3 10 16 10 28 0 12 1 32 1 45
0 12 4 22 9 22 10 0 8 19 -3 38 -5 7 -4 12 2 12 6 0 10 3 9 8 -2 8 14 94 22
120 1 4 2 10 1 15 0 4 4 7 10 7 8 0 7 6 -2 17 -12 14 -12 16 0 9 9 -6 12 -5 9
5 -3 8 1 20 9 27 7 8 11 18 8 23 -4 5 -1 9 4 9 6 0 10 3 9 8 -4 15 24 82 34
82 6 0 8 3 5 7 -4 3 -2 12 4 20 6 7 8 13 5 13 -4 0 0 7 8 16 9 8 14 19 11 23
-2 5 5 18 16 29 11 12 17 22 14 22 -4 0 4 15 17 33 13 17 23 35 23 38 0 3 8
13 18 23 9 10 17 24 17 32 0 8 5 12 10 9 6 -3 10 -1 10 4 0 13 20 38 91 112
31 32 53 62 50 65 -3 4 2 4 12 1 10 -4 16 -3 12 3 -3 5 20 28 52 52 80 60 82
61 103 82 11 11 20 16 20 12 0 -4 7 0 16 8 8 9 19 14 23 12 4 -3 13 4 21 14 8
10 18 16 22 13 5 -3 16 3 23 13 8 11 15 15 15 9 0 -5 4 -4 9 3 4 7 14 14 22
15 8 2 21 7 29 12 8 5 21 10 28 11 8 2 22 10 33 20 15 13 19 14 19 3 0 -9 3
-10 8 -3 6 9 35 25 52 28 3 1 11 5 18 9 6 5 12 6 12 2 0 -3 13 1 30 10 35 18
43 19 34 3 -4 -7 2 -5 13 5 11 10 24 17 29 16 5 -1 12 0 17 1 4 1 12 4 17 5 6
1 11 3 13 5 3 3 39 10 65 12 12 1 22 5 22 9 0 10 34 5 42 -6 5 -6 8 -5 8 4 0
8 7 11 20 8 11 -3 20 -1 20 3 0 5 15 7 33 6 17 -2 35 2 39 8 6 8 8 8 8 0 0 -8
13 -9 40 -4 22 4 43 3 46 -1 3 -5 13 -5 23 0 10 6 23 6 31 1 9 -6 17 -5 21 2
6 9 11 9 22 0 7 -7 16 -9 19 -7 11 11 48 13 48 3 0 -7 4 -7 13 1 8 6 17 8 20
5 3 -3 27 -8 54 -11 89 -8 103 -10 109 -16 3 -3 13 -3 22 0 8 4 13 2 10 -3 -4
-5 8 -10 25 -10 42 -2 69 -8 86 -18 8 -5 26 -11 40 -12 41 -5 60 -10 67 -17 4
-4 18 -7 30 -7 13 0 26 -4 29 -10 3 -5 15 -10 26 -10 10 0 19 -5 19 -11 0 -5
5 -7 10 -4 6 3 10 1 10 -6 0 -7 3 -10 6 -6 3 3 39 -12 80 -33 50 -27 75 -36
80 -28 4 6 3 8 -4 4 -6 -3 -13 3 -17 14 -3 11 -10 20 -15 20 -9 0 -41 26 -90
72 -16 14 -31 23 -34 20 -3 -3 -6 0 -6 6 0 7 -7 12 -16 12 -8 0 -12 5 -9 10 3
6 -1 10 -9 10 -9 0 -16 5 -16 11 0 5 -4 8 -9 5 -4 -3 -16 3 -26 14 -10 11 -21
18 -25 15 -4 -2 -17 7 -29 21 -12 14 -25 22 -30 19 -5 -2 -11 2 -15 10 -3 8
-12 15 -21 15 -8 0 -15 3 -15 8 0 4 -10 12 -23 17 -51 24 -132 71 -135 78 -2
4 -8 5 -13 1 -5 -3 -9 0 -9 6 0 7 -7 10 -15 6 -8 -3 -15 -1 -15 4 0 6 -6 10
-14 10 -8 0 -16 4 -18 10 -1 5 -15 11 -30 12 -16 1 -28 5 -28 9 0 7 -39 22
-52 20 -5 -1 -8 3 -8 8 0 5 -8 8 -17 7 -10 -2 -24 3 -31 11 -8 7 -17 11 -22 8
-5 -3 -10 -1 -12 4 -1 5 -14 11 -28 13 -14 1 -31 9 -38 16 -8 7 -18 10 -23 7
-5 -4 -9 -1 -9 6 0 7 -3 10 -6 6 -3 -3 -29 3 -57 14 -27 11 -56 18 -63 15 -7
-3 -14 0 -16 5 -2 6 -10 11 -18 13 -8 2 -33 7 -55 11 -22 5 -46 8 -52 7 -7 -2
-13 1 -13 5 0 5 -11 10 -26 11 -14 1 -34 7 -46 13 -16 9 -19 8 -13 -2 6 -8 4
-10 -4 -5 -14 9 -65 19 -98 20 -13 0 -23 3 -23 6 0 5 -88 13 -177 14 -29 1
-53 5 -53 9 0 4 -9 3 -20 -3 -11 -6 -20 -7 -20 -2 0 9 -108 8 -117 -2 -3 -3
-11 -1 -18 4 -7 5 -14 8 -16 5z"/>
<path d="M786 5965 c-3 -8 -1 -15 3 -15 5 0 11 7 15 15 3 8 1 15 -3 15 -5 0
-11 -7 -15 -15z"/>
<path d="M767 5924 c2 -6 0 -15 -6 -18 -6 -4 -8 -13 -4 -21 3 -8 0 -15 -6 -15
-6 0 -11 -5 -11 -11 0 -5 5 -7 10 -4 6 4 2 -8 -9 -26 -11 -18 -18 -36 -15 -40
2 -4 0 -11 -6 -14 -8 -5 -7 -12 2 -23 10 -12 10 -14 1 -8 -9 5 -13 0 -13 -16
0 -13 -5 -29 -12 -36 -7 -7 -9 -12 -5 -12 4 0 3 -8 -2 -19 -6 -10 -13 -33 -16
-51 -3 -18 -9 -38 -12 -44 -4 -5 -8 -19 -9 -30 -5 -36 -10 -60 -17 -76 -3 -8
-11 -42 -18 -75 -6 -33 -16 -63 -23 -67 -8 -6 -8 -8 1 -8 9 0 10 -7 2 -26 -5
-15 -7 -29 -5 -32 3 -2 1 -12 -4 -22 -5 -9 -12 -39 -15 -66 -4 -27 -9 -60 -11
-74 -10 -51 -25 -183 -28 -250 -1 -25 -4 -50 -7 -55 -2 -6 -4 -53 -4 -105 1
-56 -3 -98 -9 -102 -8 -5 -8 -8 0 -8 7 0 10 -26 9 -72 -1 -43 3 -76 9 -80 8
-5 7 -8 -1 -8 -7 0 -10 -6 -8 -12 2 -7 7 -49 10 -93 4 -44 9 -100 11 -125 3
-25 6 -56 7 -70 1 -14 6 -31 11 -39 7 -11 6 -12 -5 -6 -11 7 -12 6 -3 -6 6 -8
12 -21 12 -29 1 -14 3 -29 18 -130 3 -25 11 -48 18 -52 7 -5 7 -8 -3 -8 -11 0
-11 -3 -1 -15 6 -8 12 -30 12 -50 0 -19 3 -35 7 -35 4 0 7 -8 7 -17 1 -29 13
-88 22 -114 5 -13 8 -34 7 -46 -1 -13 1 -23 4 -23 4 0 12 -24 19 -52 17 -69
18 -70 27 -91 4 -10 5 -21 1 -24 -3 -3 -1 -12 5 -20 6 -7 8 -13 3 -13 -5 0 -3
-4 4 -8 7 -5 14 -23 15 -40 1 -18 5 -32 10 -32 4 0 7 -11 7 -25 0 -14 5 -25
10 -25 6 0 10 -11 10 -25 0 -14 5 -35 12 -48 26 -50 28 -58 23 -67 -4 -6 0
-13 9 -16 8 -3 13 -14 11 -25 -2 -10 3 -26 11 -34 9 -8 13 -15 9 -15 -3 0 0
-10 7 -22 6 -13 13 -29 14 -37 2 -8 8 -17 15 -21 6 -4 8 -13 5 -19 -4 -6 -2
-11 4 -11 6 0 8 -4 5 -10 -3 -5 -1 -10 4 -10 6 0 11 -9 11 -20 0 -11 5 -20 10
-20 6 0 10 -9 10 -20 0 -11 5 -20 11 -20 5 0 8 -4 5 -9 -3 -5 4 -20 15 -35 11
-14 18 -26 15 -26 -7 0 35 -83 46 -91 5 -3 10 -15 11 -27 0 -11 4 -19 8 -16 7
4 22 -34 20 -48 -1 -5 3 -8 7 -8 5 0 17 -18 28 -40 10 -22 23 -40 27 -40 5 0
5 -4 2 -10 -3 -6 -1 -10 5 -10 6 0 9 -4 6 -8 -3 -5 4 -14 14 -22 10 -8 17 -17
14 -22 -3 -4 0 -8 6 -8 6 0 9 -4 6 -8 -3 -5 2 -18 12 -28 9 -10 23 -31 31 -46
8 -16 18 -28 23 -28 4 0 8 -7 8 -15 0 -8 5 -15 10 -15 6 0 10 -7 10 -15 0 -8
5 -15 10 -15 6 0 10 -4 10 -10 0 -10 20 -37 52 -72 10 -10 16 -18 13 -18 -3 0
4 -11 17 -25 37 -39 49 -55 43 -55 -4 0 7 -11 24 -25 16 -14 33 -35 36 -45 4
-11 13 -20 21 -20 8 0 14 -5 14 -11 0 -6 29 -39 64 -74 35 -35 61 -66 58 -69
-3 -3 0 -6 6 -6 6 0 45 -34 86 -75 42 -41 76 -72 76 -70 0 3 15 -10 34 -28 19
-17 48 -43 66 -57 77 -62 95 -76 109 -92 9 -10 19 -18 23 -18 7 0 36 -21 63
-48 8 -6 17 -12 22 -12 4 -1 24 -14 43 -30 19 -17 40 -30 47 -30 7 0 13 -4 13
-10 0 -5 5 -10 10 -10 6 0 20 -9 32 -20 12 -11 28 -20 35 -20 8 0 11 -5 8 -10
-5 -9 1 -12 21 -9 3 0 14 -9 23 -20 10 -11 21 -18 24 -15 3 4 13 0 21 -7 26
-24 41 -34 56 -37 8 -2 17 -7 20 -10 3 -4 19 -14 35 -22 17 -8 32 -17 35 -20
16 -16 52 -30 62 -24 6 4 8 3 5 -3 -6 -9 191 -110 206 -105 4 1 7 -3 7 -8 0
-6 7 -10 15 -10 9 0 27 -7 40 -16 14 -9 25 -12 25 -8 0 5 4 4 8 -1 8 -13 108
-55 128 -55 8 0 14 -4 14 -10 0 -5 9 -10 20 -10 23 0 72 -21 82 -35 5 -6 8 -6
8 2 0 7 13 5 37 -7 21 -10 41 -16 45 -13 5 2 8 -1 8 -7 0 -6 3 -9 8 -7 4 3 18
0 32 -6 27 -11 36 -13 63 -15 12 -1 15 -6 11 -14 -5 -9 -2 -9 9 1 9 7 17 9 17
3 0 -5 7 -13 16 -16 10 -4 13 -2 8 7 -5 9 -4 9 7 0 7 -7 26 -13 41 -13 15 0
28 -4 28 -8 0 -7 24 -12 68 -15 6 0 12 -4 12 -9 0 -5 4 -7 9 -3 5 3 13 1 16
-5 5 -8 11 -8 20 0 9 8 17 7 27 -3 7 -8 21 -13 31 -11 9 1 17 -3 17 -9 0 -9 2
-9 8 0 6 10 13 9 33 -1 14 -7 33 -12 42 -10 9 1 17 -1 17 -4 0 -4 19 -7 43 -7
23 0 50 -6 59 -14 13 -10 18 -11 18 -2 0 7 5 9 10 6 6 -4 28 -8 48 -10 20 -2
48 -7 62 -10 25 -6 95 -12 225 -20 168 -11 570 -4 613 10 15 4 22 2 22 -7 0
-8 3 -9 8 -3 4 6 12 11 18 12 44 8 105 15 136 16 21 1 38 5 38 9 0 4 8 6 18 6
9 0 33 3 52 7 19 4 51 9 70 10 19 1 43 6 52 10 9 4 22 4 28 0 5 -3 10 -1 10 5
0 6 8 10 18 9 9 -1 19 0 22 1 3 1 14 3 24 5 11 2 31 7 45 10 14 4 27 6 28 6 2
0 21 6 44 14 23 8 45 12 50 9 5 -3 9 -1 9 5 0 5 8 8 18 6 9 -1 22 1 27 4 14
10 92 34 110 34 8 0 15 3 15 7 0 4 6 7 13 7 13 1 200 68 217 78 5 3 20 8 32
10 13 3 24 9 26 15 2 6 8 7 14 4 6 -4 14 -1 18 5 4 7 16 13 28 14 12 0 19 3
16 6 -4 4 51 27 81 34 5 1 16 8 23 15 8 7 18 10 23 7 5 -4 9 -2 9 3 0 4 16 14
35 22 19 8 35 18 35 22 0 5 4 6 10 3 6 -3 10 -1 10 5 0 6 4 9 9 5 5 -3 17 3
27 12 10 10 18 16 18 13 1 -3 19 6 41 19 22 14 46 24 53 22 6 -1 12 3 12 9 0
5 7 10 15 10 8 0 15 5 15 10 0 6 7 10 16 10 8 0 12 4 9 10 -3 6 1 7 9 4 9 -3
16 -1 16 5 0 6 7 11 15 11 9 0 18 7 21 15 4 8 10 13 14 10 5 -3 15 2 23 10 9
8 20 15 26 15 6 0 11 5 11 11 0 5 4 8 9 4 6 -3 13 1 18 8 4 7 29 25 56 41 26
15 45 31 41 37 -3 5 -2 8 3 7 16 -4 51 13 57 27 3 8 10 15 16 15 5 0 23 12 39
26 16 14 32 26 35 25 3 0 22 15 43 34 57 52 72 65 78 65 7 0 76 63 146 133 33
32 59 55 59 51 0 -4 13 9 29 29 15 20 31 34 35 30 3 -3 6 -2 6 4 0 6 35 47 78
92 44 44 77 83 74 86 -3 2 3 7 12 11 9 3 16 13 16 21 0 8 4 12 9 8 5 -3 12 4
16 15 4 11 11 18 16 15 5 -4 9 0 9 7 0 8 13 28 29 46 17 17 27 32 24 32 -3 0
7 11 23 25 16 14 26 25 22 25 -4 0 4 11 18 25 15 15 22 30 18 38 -4 6 -4 9 1
5 9 -8 55 53 55 72 0 6 5 8 10 5 6 -3 10 -1 10 5 0 13 60 103 73 108 4 2 5 8
1 13 -3 5 -1 9 4 9 5 0 15 13 22 30 7 16 17 30 22 30 5 0 6 5 3 10 -3 6 -1 10
4 10 6 0 11 7 11 15 0 9 7 18 16 22 8 3 13 11 10 19 -3 7 0 14 5 16 6 2 12 12
13 23 2 11 9 19 15 17 6 -1 10 1 9 5 -3 10 34 86 45 94 5 3 8 8 7 10 -1 2 14
37 33 78 20 41 34 79 31 83 -3 5 0 7 8 6 7 -2 12 3 10 11 -2 8 1 17 5 20 5 3
17 27 27 54 10 26 21 47 25 47 4 0 8 6 9 13 1 12 9 47 12 57 1 3 2 8 1 13 0 4
3 7 9 7 5 0 10 9 10 20 0 11 4 20 9 20 6 0 8 9 6 20 -2 11 1 20 7 20 6 0 9 3
6 6 -4 3 0 17 7 31 7 14 12 34 10 44 -2 11 0 17 5 14 5 -3 13 12 16 35 4 22
10 40 14 40 5 0 7 8 5 18 -1 9 0 22 4 27 3 6 7 16 8 23 7 29 12 47 13 50 3 2
4 6 14 47 4 17 10 37 13 45 4 8 7 20 8 25 1 6 3 12 4 15 1 3 4 20 7 39 2 19
10 46 17 60 6 14 12 43 12 63 0 21 3 38 6 38 3 0 6 6 7 13 0 6 3 28 7 47 3 19
8 49 10 65 7 40 13 70 15 70 1 0 3 23 6 50 2 28 6 70 9 95 3 25 7 59 9 76 1
17 6 36 10 42 3 6 2 13 -4 17 -6 4 -8 11 -4 16 10 17 12 59 2 59 -5 0 -6 6 -1
13 12 18 11 81 -1 89 -7 5 -7 8 -1 8 12 0 14 164 3 176 -4 3 -4 14 1 23 9 18
7 98 -2 107 -4 4 -2 15 4 25 6 13 6 19 0 19 -7 0 -7 8 -1 24 5 13 6 27 2 31
-4 4 -8 23 -9 43 -1 20 -4 51 -7 67 -6 29 -18 126 -19 153 0 6 -3 12 -6 12 -3
0 -6 17 -7 38 -1 62 -9 117 -16 122 -4 3 -8 22 -10 43 -1 20 -5 37 -9 37 -5 0
-6 9 -4 20 2 11 -1 23 -7 26 -7 4 -8 2 -4 -4 4 -7 1 -12 -6 -12 -10 0 -10 -2
1 -9 10 -6 10 -10 1 -16 -8 -5 -6 -11 7 -22 10 -8 13 -12 8 -9 -7 3 -10 -12
-8 -42 1 -26 4 -108 5 -182 1 -79 7 -138 13 -142 7 -5 7 -8 -1 -8 -7 0 -10
-32 -10 -90 1 -50 -3 -90 -8 -90 -5 0 -3 -6 3 -13 6 -8 8 -16 5 -19 -3 -3 -7
-37 -9 -74 -2 -38 -5 -69 -6 -69 -2 0 -6 -29 -10 -72 -2 -18 -7 -33 -12 -33
-5 0 -4 -6 2 -14 7 -8 8 -16 3 -18 -6 -1 -13 -23 -16 -48 -4 -25 -9 -56 -12
-70 -3 -14 -6 -31 -6 -37 -1 -7 -4 -13 -7 -13 -3 0 -7 -16 -9 -36 -1 -19 -7
-45 -13 -56 -7 -13 -7 -18 -1 -14 6 3 2 -11 -8 -31 -14 -30 -16 -41 -7 -52 9
-12 9 -13 0 -7 -12 6 -18 -11 -14 -36 0 -5 -3 -8 -9 -8 -5 0 -7 -7 -4 -15 4
-8 1 -15 -6 -15 -6 0 -9 -4 -6 -8 3 -5 -2 -21 -10 -36 -17 -35 -18 -39 -1 -30
6 4 4 -2 -6 -13 -9 -11 -14 -23 -10 -26 3 -4 2 -7 -4 -7 -6 0 -14 -7 -17 -16
-4 -10 -2 -13 7 -8 6 4 4 -2 -5 -13 -10 -11 -18 -26 -18 -34 0 -8 -9 -31 -19
-51 -11 -19 -17 -39 -14 -42 4 -3 1 -6 -6 -6 -7 0 -11 -6 -8 -14 3 -8 -1 -17
-9 -20 -8 -3 -14 -12 -14 -20 0 -9 -9 -31 -20 -51 -11 -20 -20 -42 -20 -50 0
-8 -4 -15 -9 -15 -5 0 -16 -18 -25 -40 -9 -22 -21 -40 -27 -40 -5 0 -8 -4 -4
-9 3 -5 -2 -17 -11 -25 -8 -9 -12 -16 -7 -16 4 0 -1 -7 -11 -15 -11 -8 -17
-15 -13 -15 4 0 -10 -27 -33 -59 -22 -33 -40 -65 -40 -70 0 -6 -4 -11 -8 -11
-8 0 -47 -61 -45 -70 1 -3 -7 -9 -17 -15 -10 -5 -19 -14 -18 -18 0 -9 -28 -50
-50 -73 -7 -8 -11 -14 -8 -14 3 0 -2 -8 -11 -18 -10 -10 -31 -35 -48 -56 -94
-121 -318 -357 -373 -395 -12 -8 -19 -17 -18 -20 4 -7 -26 -37 -34 -34 -5 2
-85 -63 -127 -104 -12 -12 -32 -24 -43 -28 -11 -4 -18 -11 -15 -16 4 -5 1 -9
-4 -9 -17 0 -23 -4 -47 -25 -38 -35 -53 -45 -64 -45 -5 0 -10 -4 -10 -9 0 -5
-16 -16 -35 -25 -20 -10 -33 -22 -29 -27 3 -5 2 -8 -3 -7 -10 3 -93 -43 -93
-53 0 -4 -11 -10 -25 -13 -14 -4 -25 -11 -25 -17 0 -6 -4 -7 -10 -4 -5 3 -10
3 -10 -2 0 -4 -18 -17 -40 -27 -23 -11 -37 -24 -33 -30 3 -6 3 -8 -1 -4 -9 7
-141 -57 -151 -73 -4 -5 -11 -7 -16 -4 -5 4 -9 1 -9 -5 0 -7 -7 -10 -15 -6 -8
3 -19 -2 -24 -12 -5 -9 -11 -16 -13 -14 -2 2 -16 -2 -33 -8 -16 -6 -32 -11
-33 -10 -2 1 -10 -7 -18 -17 -7 -10 -14 -14 -14 -9 0 5 -7 3 -15 -4 -8 -7 -15
-9 -15 -6 0 4 -10 1 -22 -6 -13 -7 -25 -13 -28 -13 -3 0 -15 -6 -27 -13 -13
-7 -23 -9 -23 -5 0 4 -4 3 -8 -3 -7 -10 -94 -44 -119 -46 -7 -1 -13 -5 -13
-10 0 -4 -8 -8 -18 -8 -10 0 -23 -5 -30 -12 -7 -7 -12 -8 -12 -4 0 5 -12 1
-26 -9 -15 -9 -23 -12 -19 -5 5 9 1 8 -16 -1 -13 -7 -26 -14 -29 -14 -37 -7
-70 -18 -70 -23 0 -4 -10 -8 -22 -8 -20 -2 -53 -9 -68 -14 -3 -1 -8 -2 -12 -1
-5 0 -8 -5 -8 -12 0 -8 -4 -7 -10 3 -7 11 -10 11 -10 2 0 -7 -4 -10 -10 -7 -5
3 -10 2 -10 -3 0 -6 -9 -8 -20 -5 -11 3 -20 1 -20 -5 0 -6 -8 -9 -17 -7 -10 1
-27 -2 -38 -8 -11 -6 -23 -10 -28 -9 -4 1 -28 -3 -55 -9 -26 -6 -63 -12 -82
-13 -20 -2 -45 -8 -56 -14 -12 -6 -24 -9 -27 -5 -4 3 -14 0 -24 -8 -14 -12
-16 -12 -8 0 6 11 4 13 -11 7 -10 -4 -23 -9 -29 -10 -5 -1 -16 -5 -22 -9 -8
-5 -13 -3 -13 3 0 6 -4 8 -10 5 -5 -3 -31 -8 -57 -11 -79 -9 -82 -10 -89 -16
-3 -4 -16 -3 -29 2 -13 5 -26 6 -30 2 -7 -7 -27 -9 -127 -12 -40 -2 -56 -6
-51 -14 5 -8 3 -8 -8 0 -15 11 -84 12 -95 1 -4 -3 -15 -2 -25 3 -11 7 -19 6
-21 -1 -2 -7 -12 -7 -30 0 -14 5 -29 7 -32 3 -9 -9 -36 -11 -36 -3 0 7 -90 4
-98 -4 -2 -2 -13 0 -23 6 -11 5 -19 6 -19 1 0 -5 -7 -9 -15 -9 -8 0 -15 3 -15
7 0 8 -37 6 -46 -3 -4 -4 -13 -2 -20 4 -8 7 -14 7 -19 -1 -4 -6 -13 -7 -23 -2
-9 5 -36 8 -59 8 -24 -1 -43 3 -43 9 0 5 -5 4 -11 -2 -6 -6 -22 -8 -38 -4 -14
4 -38 7 -53 6 -16 -1 -28 3 -28 8 0 5 -7 4 -15 -3 -8 -7 -15 -8 -15 -3 0 5
-16 10 -35 11 -19 1 -51 3 -70 4 -19 1 -35 5 -35 8 0 3 -21 7 -47 8 -27 1 -50
7 -51 12 -3 7 -9 7 -18 -1 -9 -7 -14 -8 -14 -1 0 6 -8 11 -17 11 -51 2 -73 6
-73 11 0 7 -8 8 -55 11 -14 1 -25 5 -25 10 0 4 -9 6 -20 4 -11 -2 -20 1 -20 6
0 6 -4 8 -9 5 -5 -3 -27 1 -50 9 -23 8 -41 12 -41 8 0 -3 -6 -1 -12 4 -15 11
-68 27 -82 24 -4 -1 -14 3 -20 9 -7 5 -16 7 -19 3 -4 -3 -7 -1 -7 6 0 7 -5 9
-10 6 -6 -3 -10 -1 -10 6 0 8 -4 8 -15 -1 -12 -10 -16 -9 -21 4 -3 9 -11 16
-17 16 -21 0 -152 53 -159 64 -5 7 -8 6 -8 -4 0 -13 -1 -13 -10 0 -5 8 -10 12
-10 7 0 -4 -10 -1 -23 8 -13 8 -27 12 -30 8 -4 -3 -7 -2 -7 4 0 8 -42 23 -65
22 -3 0 -13 7 -21 16 -9 8 -24 15 -35 15 -10 0 -19 5 -19 11 0 5 -4 7 -10 4
-5 -3 -10 -1 -10 5 0 6 -4 9 -10 5 -5 -3 -26 5 -47 18 -21 13 -44 22 -50 20
-7 -3 -13 3 -13 14 0 15 -2 16 -10 3 -8 -13 -10 -12 -10 3 0 13 -5 17 -19 12
-12 -3 -21 0 -25 11 -4 10 -12 14 -23 10 -10 -4 -14 -4 -10 0 3 4 -13 16 -36
27 -23 12 -44 23 -47 26 -12 13 -70 41 -70 34 0 -4 -4 -3 -8 2 -4 6 -27 24
-52 40 -25 16 -47 32 -50 35 -3 3 -12 6 -20 8 -8 2 -19 10 -23 18 -4 8 -14 14
-22 14 -7 0 -15 4 -17 9 -1 5 -10 11 -18 13 -8 2 -22 11 -31 21 -9 9 -21 17
-28 17 -6 0 -11 5 -11 10 0 6 -6 10 -14 10 -8 0 -17 7 -20 16 -4 9 -10 14 -13
10 -4 -4 -13 4 -20 16 -7 13 -12 17 -13 11 0 -7 -13 1 -28 17 -16 16 -32 27
-35 23 -4 -3 -7 1 -7 11 0 9 -4 15 -9 11 -5 -3 -16 4 -24 15 -7 11 -16 17 -20
14 -3 -3 -12 3 -19 15 -7 12 -21 21 -31 21 -10 0 -16 4 -13 8 5 8 -37 52 -50
52 -3 0 -19 14 -34 30 -15 17 -33 30 -38 30 -6 0 -14 9 -17 20 -4 11 -11 18
-16 15 -5 -4 -9 1 -9 9 0 9 -4 16 -8 16 -13 0 -72 56 -72 68 0 7 -6 12 -12 12
-7 0 -22 14 -33 30 -11 16 -26 30 -32 30 -7 0 -13 4 -13 10 0 5 -20 30 -45 56
-25 25 -45 48 -45 50 0 4 -37 47 -77 89 -13 13 -23 29 -23 35 0 5 -4 10 -10
10 -5 0 -10 7 -10 15 0 8 -7 15 -16 15 -8 0 -12 5 -9 10 3 6 2 10 -3 10 -5 0
-15 12 -23 27 -8 15 -22 37 -31 48 -10 11 -25 28 -33 38 -9 10 -14 21 -11 26
3 4 -4 14 -15 21 -10 8 -19 20 -19 26 0 7 -6 19 -13 26 -17 18 -87 137 -87
149 0 5 -4 9 -9 9 -5 0 -15 16 -22 35 -7 19 -17 35 -22 35 -4 0 -5 5 -2 10 3
6 1 10 -4 10 -6 0 -11 6 -11 14 0 7 -7 19 -15 26 -8 6 -14 15 -13 18 1 4 -7
25 -17 47 -10 22 -18 43 -17 48 1 4 -3 7 -9 7 -5 0 -7 5 -4 10 3 6 3 10 -2 10
-4 0 -13 11 -20 25 -8 19 -8 24 0 19 7 -3 3 2 -7 10 -11 9 -16 16 -11 16 5 0
4 5 -3 12 -7 7 -12 20 -12 29 0 10 -5 19 -10 21 -6 2 -12 13 -13 26 0 12 -6
22 -11 22 -5 0 -7 3 -3 6 3 4 -2 23 -12 43 -10 20 -16 42 -14 49 3 6 0 12 -6
12 -6 0 -11 6 -11 13 0 8 -9 42 -21 77 -11 35 -21 71 -22 82 -1 10 -4 18 -7
18 -7 0 -9 10 -12 55 -1 14 -6 25 -12 25 -5 0 -6 3 -3 7 4 3 1 13 -6 21 -10
13 -9 14 3 7 12 -7 13 -6 3 6 -10 13 -25 86 -26 127 0 6 -3 12 -7 12 -4 0 -8
12 -9 28 -2 35 -8 77 -10 77 -3 0 -14 112 -15 153 -1 17 -5 32 -9 32 -4 0 -3
8 2 19 6 10 8 21 4 24 -3 3 -7 39 -9 79 -2 40 -6 78 -9 85 -2 7 1 15 7 19 7 4
6 9 -3 15 -8 5 -9 9 -4 9 6 0 9 32 9 78 -1 42 3 85 8 96 7 12 7 16 0 12 -9 -5
-9 8 2 89 1 11 -3 26 -8 34 -8 11 -8 13 2 7 9 -5 12 5 12 41 0 27 6 55 13 62
10 11 10 13 0 7 -16 -9 -16 4 -3 39 7 19 7 24 -1 19 -8 -4 -8 -1 -1 12 5 11 9
34 7 52 -1 17 2 32 8 32 5 0 7 7 4 15 -4 8 -2 17 4 21 6 3 8 11 6 18 -2 6 0
22 6 36 5 14 11 43 13 65 2 22 8 41 14 43 7 3 7 10 0 23 -7 13 -7 19 0 19 5 0
10 6 10 13 0 8 -6 14 -14 14 -8 0 -12 -6 -9 -13z"/>
</g>
</svg>
